<svg xmlns="http://www.w3.org/2000/svg" viewBox="0 0 187 67" width="187" height="67">
	<style>
		tspan { white-space:pre }
		.shp0 { fill: #ffffff } 
		.shp1 { fill: #b9232f } 
	</style>
	<path id="Layer" class="shp0" d="M29.79 40.99L22.25 40.99L22.25 18.65L17.84 40.99L12.02 40.99L6.96 18.65L6.96 40.99L0.35 40.99L0.35 1.19L11.24 1.19L15.11 21.83L18.47 1.19L29.83 1.19L29.83 40.99L29.79 40.99Z" />
	<path id="Layer" fill-rule="evenodd" class="shp0" d="M41.94 40.99C41.94 40.99 41.78 39.7 41.72 38.72C41.65 37.74 40.45 41.37 37.89 41.37C33.94 41.37 31.96 39.67 31.96 36.28L31.96 29.84C31.95 29.38 31.98 28.92 32.04 28.46C32.1 28 32.19 27.55 32.31 27.1C32.43 26.66 32.58 26.22 32.76 25.79C32.94 25.37 33.16 24.96 33.39 24.56C33.82 24.18 34.27 23.82 34.72 23.47C35.18 23.13 35.66 22.81 36.14 22.5C36.63 22.2 37.12 21.91 37.63 21.65C38.14 21.38 38.66 21.14 39.19 20.92C39.49 20.79 39.78 20.63 40.05 20.44C40.32 20.24 40.56 20.02 40.78 19.77C41 19.53 41.19 19.25 41.35 18.96C41.5 18.67 41.63 18.37 41.72 18.05L41.72 14.9C41.72 13.84 41.42 13.67 40.58 13.67C39.74 13.67 39 14.6 39 17.18C39 17.65 39 18.33 39 19.25C39.01 19.32 39.01 19.4 39.02 19.48C39.02 19.56 39.02 19.64 39.02 19.71C39.02 19.79 39.02 19.87 39.02 19.95C39.01 20.02 39.01 20.1 39 20.18L31.99 20.18L31.99 14.83C31.99 10.46 34.87 8.27 40.64 8.27C46.04 8.27 48.74 10.55 48.74 15.12L48.74 40.99L41.94 40.99ZM41.7 25.38C41.37 25.44 41.04 25.55 40.75 25.72C40.45 25.88 40.18 26.09 39.96 26.35C39.73 26.6 39.55 26.89 39.42 27.2C39.3 27.52 39.22 27.85 39.21 28.19L39.21 33.9C39.17 34.08 39.17 34.28 39.22 34.46C39.27 34.65 39.36 34.82 39.48 34.96C39.61 35.11 39.76 35.22 39.94 35.29C40.12 35.36 40.31 35.39 40.5 35.38C40.68 35.38 40.87 35.35 41.04 35.27C41.2 35.19 41.35 35.08 41.47 34.94C41.58 34.79 41.66 34.62 41.71 34.44C41.75 34.26 41.74 34.08 41.7 33.9L41.7 25.38Z" />
	<path id="Layer" class="shp0" d="M50.51 28.41L57.71 28.41L57.71 34.81C57.71 35.92 58.12 36.2 58.93 36.2C59.73 36.2 60.14 35.4 60.14 33.3C60.14 30.55 59.46 29.06 58.47 28.25C55.31 25.68 52.63 24.29 51.85 23.43C51.64 23.15 51.46 22.86 51.3 22.55C51.14 22.24 51.01 21.92 50.91 21.59C50.81 21.25 50.74 20.91 50.7 20.57C50.67 20.22 50.66 19.88 50.68 19.53L50.42 15.24C50.42 10.68 53.48 8.34 59.07 8.34C64.66 8.34 67.22 10.53 67.22 14.9L67.22 20.16L60.21 20.16L60.13 17.43C60.13 14.74 59.87 13.27 58.99 13.27C58.11 13.27 57.63 14.3 57.63 16C57.61 16.27 57.6 16.54 57.62 16.81C57.63 17.08 57.66 17.35 57.71 17.62C57.77 17.88 57.83 18.15 57.92 18.4C58.01 18.66 58.11 18.91 58.23 19.15C58.63 20.05 61.26 21.88 64.88 24.53C65.29 24.83 65.65 25.18 65.97 25.57C66.3 25.96 66.57 26.39 66.78 26.84C67 27.3 67.16 27.78 67.26 28.28C67.36 28.77 67.4 29.28 67.37 29.78L67.37 34.64C67.37 39.2 64.53 41.48 58.85 41.48C58.85 41.48 56.07 39.29 50.51 34.91L50.51 28.44L50.51 28.41Z" />
	<path id="Layer" class="shp0" d="M78.85 40.99L76.33 40.99C73.11 40.99 71.18 40.47 70.55 39.42C70.35 38.93 70.18 38.43 70.04 37.92C69.9 37.42 69.79 36.9 69.71 36.38C69.63 35.86 69.58 35.34 69.56 34.81C69.55 34.29 69.56 33.76 69.6 33.23L69.6 14.19L67.93 14.19L67.93 9.03L69.6 9.03L69.6 3.27L76.74 3.27L76.74 9.03L78.85 9.03L78.85 14.19L76.74 14.19L76.74 33.11C76.72 33.32 76.72 33.53 76.74 33.74C76.76 33.94 76.8 34.15 76.87 34.35C76.93 34.55 77.02 34.74 77.13 34.92C77.23 35.1 77.35 35.27 77.49 35.43C78 35.76 77.95 35.27 78.85 35.43L78.85 40.9L78.85 40.99Z" />
	<path id="Layer" fill-rule="evenodd" class="shp0" d="M96.58 25.84L87.03 25.84L87.03 34.78C87.03 35.88 87.44 36.22 88.26 36.22C89.08 36.22 89.46 35.88 89.46 34.78L89.46 28.33L96.58 28.33L96.58 34.83C96.58 39.23 93.79 41.43 88.2 41.43C88.2 41.43 85.43 39.14 79.89 34.54L79.89 15.01C79.89 10.41 82.66 8.11 88.2 8.11C88.2 8.11 90.99 10.32 96.58 14.72L96.58 25.84ZM89.4 21.11L89.4 14.8C89.4 13.73 89.01 13.22 88.2 13.22C87.39 13.22 86.97 13.74 86.97 14.8L86.97 21.11L89.4 21.11Z" />
	<path id="Layer" class="shp0" d="M115.33 25.93L108.19 25.93L108.19 15.92C108.22 15.72 108.22 15.52 108.18 15.32C108.13 15.12 108.05 14.93 107.94 14.77C107.83 14.6 107.68 14.45 107.51 14.34C107.34 14.23 107.16 14.15 106.96 14.11C106.76 14.11 106.57 14.15 106.4 14.23C106.22 14.32 106.07 14.44 105.95 14.59C105.83 14.74 105.75 14.92 105.71 15.11C105.67 15.3 105.68 15.5 105.73 15.68L105.73 40.6L98.61 40.6L98.61 8.78L105.73 8.78L105.73 11.3C105.91 10.84 106.17 10.4 106.49 10.02C106.81 9.63 107.19 9.3 107.61 9.03C108.03 8.76 108.49 8.56 108.98 8.43C109.46 8.3 109.96 8.25 110.46 8.27C110.75 8.25 111.05 8.26 111.34 8.3C111.63 8.33 111.91 8.4 112.19 8.49C112.47 8.58 112.74 8.69 112.99 8.83C113.25 8.98 113.49 9.14 113.72 9.33C113.97 9.57 114.2 9.84 114.4 10.13C114.6 10.43 114.77 10.74 114.91 11.06C115.04 11.39 115.14 11.73 115.21 12.08C115.27 12.42 115.3 12.78 115.29 13.13L115.29 25.93L115.33 25.93Z" />
	<path id="Layer" fill-rule="evenodd" class="shp1" d="M124.96 26.04L124.96 40.54L117.28 40.54L117.28 0.89L125.56 0.89C126.18 0.85 126.81 0.85 127.44 0.89C128.06 0.93 128.68 1.01 129.3 1.13C129.92 1.24 130.52 1.4 131.12 1.59C131.72 1.78 132.3 2.01 132.87 2.28C134.46 3.21 135.25 5.09 135.25 7.94L135.25 18.98C135.31 19.48 135.3 19.99 135.24 20.49C135.18 21 135.07 21.49 134.9 21.97C134.73 22.44 134.51 22.9 134.24 23.33C133.97 23.76 133.65 24.16 133.29 24.51C132.03 25.61 129.25 26.12 124.96 26.04ZM127.58 17.75L127.58 8.7C127.58 7.29 126.71 6.58 124.96 6.58L124.96 19.78C126.66 19.78 127.59 19.14 127.59 17.73L127.58 17.75Z" />
	<path id="Layer" class="shp1" d="M173.24 25.56L166.14 25.56L166.14 15.57C166.17 15.37 166.17 15.17 166.12 14.97C166.08 14.77 166 14.59 165.89 14.42C165.77 14.25 165.63 14.11 165.46 13.99C165.29 13.88 165.1 13.8 164.91 13.76C164.71 13.76 164.52 13.8 164.35 13.89C164.17 13.97 164.02 14.09 163.9 14.25C163.78 14.4 163.7 14.58 163.66 14.76C163.62 14.95 163.63 15.15 163.67 15.34L163.67 40.25L156.54 40.25L156.54 8.43L163.67 8.43L163.67 10.95C163.86 10.49 164.12 10.06 164.44 9.67C164.76 9.29 165.14 8.96 165.56 8.69C165.98 8.42 166.44 8.21 166.93 8.08C167.41 7.96 167.91 7.9 168.41 7.93C168.7 7.91 169 7.91 169.29 7.95C169.58 7.98 169.86 8.05 170.14 8.14C170.42 8.23 170.69 8.34 170.94 8.49C171.2 8.63 171.44 8.79 171.66 8.98C171.92 9.23 172.15 9.5 172.35 9.79C172.55 10.08 172.72 10.39 172.85 10.72C172.99 11.04 173.09 11.38 173.15 11.73C173.22 12.08 173.25 12.43 173.24 12.78L173.24 25.56L173.24 25.56Z" />
	<path id="Layer" class="shp1" d="M186.22 40.3L183.71 40.3C180.49 40.3 178.56 39.77 177.93 38.72C177.73 38.24 177.57 37.74 177.43 37.23C177.29 36.72 177.18 36.21 177.1 35.69C177.02 35.17 176.97 34.64 176.95 34.12C176.93 33.59 176.94 33.07 176.98 32.54L176.98 13.49L175.31 13.49L175.31 8.34L176.98 8.34L176.98 2.58L184.12 2.58L184.12 8.34L186.24 8.34L186.24 13.49L184.12 13.49L184.12 32.41C184.1 32.62 184.1 32.83 184.12 33.04C184.14 33.25 184.19 33.46 184.25 33.65C184.32 33.85 184.4 34.05 184.51 34.23C184.61 34.41 184.74 34.58 184.88 34.73C185.38 35.06 185.34 34.58 186.24 34.73L186.24 40.2L186.22 40.3Z" />
	<path id="Layer" fill-rule="evenodd" class="shp1" d="M147.3 40.49C147.3 40.49 147.14 39.2 147.08 38.22C147.02 37.24 145.82 40.87 143.26 40.87C139.3 40.87 137.32 39.17 137.32 35.77L137.32 29.34C137.31 28.88 137.34 28.41 137.4 27.95C137.46 27.49 137.55 27.04 137.67 26.59C137.79 26.14 137.94 25.7 138.12 25.28C138.31 24.85 138.52 24.44 138.76 24.04C139.19 23.66 139.63 23.3 140.09 22.96C140.55 22.61 141.02 22.29 141.5 21.99C141.99 21.68 142.49 21.4 143 21.14C143.5 20.88 144.02 20.63 144.55 20.41C144.86 20.29 145.15 20.12 145.42 19.93C145.68 19.73 145.93 19.51 146.15 19.26C146.37 19.01 146.55 18.74 146.71 18.45C146.87 18.16 146.99 17.85 147.08 17.53L147.08 14.37C147.08 13.32 146.78 13.14 145.94 13.14C145.11 13.14 144.36 14.08 144.36 16.66C144.36 17.13 144.36 17.81 144.36 18.73C144.37 18.8 144.38 18.88 144.38 18.96C144.38 19.04 144.39 19.11 144.39 19.19C144.39 19.27 144.38 19.35 144.38 19.43C144.38 19.5 144.37 19.58 144.36 19.66L137.35 19.66L137.35 14.31C137.35 9.94 140.24 7.75 146.01 7.75C151.41 7.75 154.11 10.03 154.11 14.6L154.11 40.49L147.3 40.49ZM147.06 24.88C146.73 24.94 146.41 25.05 146.11 25.21C145.82 25.38 145.55 25.59 145.32 25.85C145.1 26.1 144.92 26.39 144.79 26.7C144.66 27.01 144.59 27.35 144.57 27.68L144.57 33.39C144.53 33.58 144.53 33.77 144.58 33.96C144.63 34.14 144.72 34.31 144.85 34.46C144.97 34.6 145.13 34.71 145.3 34.79C145.48 34.86 145.67 34.89 145.86 34.87C146.05 34.88 146.23 34.84 146.4 34.77C146.57 34.69 146.71 34.57 146.83 34.43C146.95 34.29 147.03 34.12 147.07 33.94C147.11 33.76 147.11 33.57 147.06 33.39L147.06 24.88Z" />
	<path id="Layer" class="shp0" d="M49.74 50.06L47.35 50.06L47.35 66.54L43.09 66.54L43.09 50.06L40.71 50.06L40.71 46.91L49.72 46.91L49.72 50.06L49.74 50.06Z" />
	<path id="Layer" fill-rule="evenodd" class="shp0" d="M64.74 66.57L60.88 66.57C60.74 66.2 60.62 65.81 60.52 65.42C60.42 65.03 60.35 64.64 60.3 64.24C60.25 63.84 60.22 63.44 60.21 63.04C60.21 62.64 60.23 62.24 60.27 61.84C60.27 60.21 60.27 58.2 60.27 58.17C60.27 58.02 60.25 57.87 60.18 57.73C60.12 57.59 60.03 57.47 59.92 57.37C59.8 57.28 59.66 57.21 59.52 57.17C59.37 57.14 59.22 57.14 59.07 57.17L59.07 66.63L55.22 66.63L55.22 46.95L59.95 46.95C60.2 46.95 60.45 46.96 60.7 47C60.95 47.03 61.19 47.08 61.43 47.15C61.67 47.22 61.9 47.31 62.13 47.42C62.36 47.53 62.57 47.65 62.78 47.79C62.98 47.94 63.16 48.11 63.32 48.31C63.48 48.51 63.62 48.72 63.72 48.95C63.82 49.18 63.9 49.42 63.94 49.67C63.99 49.92 64 50.17 63.98 50.42L63.98 52.74C63.99 53.1 63.94 53.45 63.83 53.79C63.72 54.13 63.56 54.45 63.34 54.74C63.13 55.02 62.87 55.27 62.57 55.47C62.27 55.66 61.94 55.81 61.59 55.9C61.96 55.97 62.3 56.11 62.61 56.31C62.92 56.5 63.19 56.76 63.41 57.05C63.63 57.35 63.79 57.68 63.89 58.04C63.98 58.39 64.02 58.76 63.98 59.13L63.98 61.27C64 64.38 64.25 66.15 64.74 66.57ZM60.32 53.72L60.32 50.5C60.33 50.35 60.3 50.2 60.24 50.06C60.19 49.92 60.1 49.79 59.98 49.69C59.87 49.59 59.73 49.52 59.58 49.49C59.43 49.45 59.28 49.45 59.13 49.48L59.13 54.78C59.28 54.81 59.44 54.81 59.59 54.77C59.74 54.74 59.88 54.66 60 54.56C60.12 54.46 60.21 54.33 60.27 54.19C60.33 54.05 60.36 53.89 60.35 53.73L60.32 53.72Z" />
	<path id="Layer" class="shp0" d="M70.03 46.95L73.91 46.95L73.91 63.4C73.9 63.49 73.92 63.57 73.95 63.65C73.98 63.73 74.03 63.79 74.09 63.85C74.15 63.91 74.23 63.95 74.31 63.97C74.39 64 74.48 64 74.56 63.98C74.64 64 74.73 64 74.81 63.98C74.89 63.96 74.97 63.92 75.03 63.86C75.09 63.8 75.14 63.73 75.17 63.65C75.2 63.57 75.21 63.49 75.21 63.4L75.21 46.95L79.09 46.95L79.09 63.16C79.1 63.42 79.08 63.67 79.03 63.92C78.98 64.17 78.9 64.41 78.79 64.63C78.68 64.86 78.54 65.07 78.38 65.27C78.22 65.46 78.03 65.63 77.83 65.78C77.59 65.94 77.34 66.09 77.08 66.21C76.82 66.33 76.55 66.43 76.28 66.51C76 66.59 75.72 66.65 75.43 66.68C75.15 66.71 74.86 66.73 74.57 66.71C74.3 66.72 74.02 66.71 73.75 66.67C73.47 66.64 73.2 66.59 72.94 66.52C72.67 66.45 72.41 66.36 72.15 66.25C71.9 66.14 71.65 66.02 71.42 65.88C71.19 65.74 70.99 65.57 70.82 65.37C70.64 65.18 70.49 64.96 70.37 64.72C70.26 64.49 70.17 64.24 70.12 63.98C70.07 63.72 70.05 63.46 70.07 63.2L70.07 46.95L70.03 46.95Z" />
	<path id="Layer" class="shp0" d="M93.95 53.8L90.35 53.8L90.35 49.92C90.35 49.85 90.34 49.78 90.31 49.71C90.28 49.65 90.24 49.59 90.19 49.55C90.13 49.5 90.07 49.47 90 49.45C89.93 49.43 89.86 49.43 89.79 49.45C89.72 49.43 89.65 49.43 89.58 49.44C89.51 49.46 89.44 49.49 89.39 49.54C89.33 49.58 89.28 49.64 89.25 49.71C89.22 49.77 89.21 49.85 89.21 49.92L89.21 63.51C89.21 63.58 89.22 63.66 89.25 63.72C89.28 63.79 89.33 63.85 89.39 63.89C89.44 63.94 89.51 63.97 89.58 63.99C89.65 64 89.72 64 89.79 63.98C89.86 64 89.93 64 90 63.98C90.07 63.96 90.13 63.93 90.19 63.88C90.24 63.84 90.28 63.78 90.31 63.72C90.34 63.65 90.35 63.58 90.35 63.51L90.35 58.67L93.98 58.67L93.98 63.64C93.98 63.86 93.95 64.09 93.9 64.3C93.84 64.52 93.76 64.73 93.65 64.93C93.54 65.12 93.4 65.3 93.24 65.46C93.09 65.62 92.91 65.76 92.72 65.88C92.51 66.02 92.29 66.14 92.06 66.24C91.83 66.35 91.59 66.44 91.35 66.51C91.11 66.58 90.86 66.63 90.61 66.67C90.36 66.7 90.11 66.72 89.86 66.71C86.78 66.71 85.25 65.54 85.25 63.2L85.25 50.58C85.25 48.04 86.78 46.76 89.86 46.76C92.62 46.76 93.99 47.92 93.99 50.23L93.99 53.78L93.95 53.8Z" />
	<path id="Layer" class="shp0" d="M110.65 66.56L105.92 66.56L104.34 59.3L104.34 66.56L100.07 66.56L100.07 46.95L104.34 46.95L104.34 53.5L106.14 46.95L110.1 46.95L107.53 55.9L110.65 66.56Z" />
	<path id="Layer" fill-rule="evenodd" class="shp0" d="M146.56 66.52L146.57 66.52L146.57 66.56L146.56 66.52ZM146.57 46.95L151.47 46.95C151.74 46.95 152 46.96 152.27 46.99C152.53 47.02 152.79 47.07 153.05 47.14C153.31 47.21 153.56 47.3 153.81 47.41C154.05 47.51 154.29 47.63 154.52 47.77C154.73 47.92 154.93 48.09 155.1 48.28C155.27 48.47 155.41 48.69 155.53 48.92C155.64 49.15 155.72 49.4 155.77 49.65C155.82 49.91 155.83 50.17 155.81 50.42L155.81 53.14C155.8 53.48 155.74 53.81 155.62 54.13C155.5 54.45 155.32 54.75 155.1 55.01C154.89 55.27 154.62 55.5 154.33 55.67C154.04 55.85 153.71 55.97 153.38 56.04C153.73 56.07 154.06 56.17 154.37 56.33C154.68 56.49 154.96 56.7 155.2 56.96C155.43 57.22 155.62 57.52 155.74 57.84C155.87 58.17 155.93 58.51 155.94 58.86L155.94 62.66C155.96 62.93 155.94 63.2 155.9 63.47C155.86 63.74 155.78 64 155.68 64.26C155.57 64.51 155.44 64.75 155.28 64.96C155.11 65.18 154.93 65.39 154.72 65.56C154.51 65.72 154.3 65.87 154.06 65.99C153.83 66.11 153.59 66.21 153.34 66.3C153.1 66.38 152.84 66.44 152.58 66.48C152.32 66.51 152.06 66.53 151.8 66.52L146.57 66.52L146.57 46.95ZM151.93 53.85L151.93 50.5C151.94 50.35 151.91 50.2 151.85 50.06C151.8 49.92 151.71 49.8 151.6 49.7C151.48 49.6 151.35 49.53 151.2 49.49C151.06 49.45 150.91 49.45 150.76 49.48L150.76 54.89C150.91 54.92 151.06 54.91 151.21 54.87C151.35 54.83 151.49 54.76 151.6 54.66C151.72 54.56 151.8 54.43 151.86 54.29C151.92 54.15 151.94 54 151.93 53.85ZM151.93 58.06C151.94 57.91 151.91 57.76 151.85 57.62C151.8 57.48 151.71 57.35 151.6 57.25C151.48 57.16 151.35 57.08 151.2 57.05C151.06 57.01 150.91 57 150.76 57.03L150.76 64.05C150.91 64.08 151.06 64.07 151.21 64.03C151.36 63.99 151.5 63.92 151.61 63.81C151.72 63.71 151.81 63.58 151.87 63.44C151.92 63.3 151.94 63.14 151.93 62.99L151.93 58.06Z" />
	<path id="Layer" class="shp0" d="M161.72 46.95L165.66 46.95L165.66 63.4C165.66 63.49 165.67 63.57 165.7 63.65C165.73 63.73 165.78 63.8 165.85 63.86C165.91 63.92 165.99 63.96 166.07 63.98C166.16 64 166.24 64 166.33 63.98C166.41 64 166.49 64 166.58 63.97C166.66 63.95 166.73 63.91 166.79 63.85C166.86 63.79 166.9 63.73 166.94 63.65C166.97 63.57 166.98 63.49 166.97 63.4L166.97 46.95L170.87 46.95L170.87 63.16C170.88 63.42 170.86 63.67 170.81 63.92C170.76 64.17 170.67 64.41 170.56 64.64C170.45 64.87 170.31 65.08 170.14 65.27C169.98 65.47 169.79 65.64 169.58 65.78C169.34 65.94 169.08 66.09 168.82 66.21C168.55 66.33 168.28 66.43 168 66.51C167.71 66.59 167.43 66.65 167.14 66.68C166.85 66.71 166.55 66.73 166.26 66.71C165.98 66.72 165.7 66.71 165.42 66.67C165.14 66.64 164.86 66.59 164.59 66.52C164.31 66.45 164.04 66.36 163.78 66.25C163.52 66.15 163.27 66.02 163.03 65.88C162.8 65.74 162.6 65.57 162.42 65.38C162.24 65.18 162.08 64.96 161.96 64.73C161.84 64.49 161.76 64.24 161.7 63.98C161.65 63.73 161.63 63.46 161.65 63.2L161.65 46.95L161.72 46.95Z" />
	<path id="Layer" class="shp0" d="M177 58.65L180.96 58.65L180.96 62.52C180.96 63.18 181.18 63.35 181.63 63.35C182.07 63.35 182.29 62.87 182.29 61.6C182.32 61.33 182.33 61.06 182.31 60.79C182.29 60.52 182.24 60.25 182.16 59.98C182.08 59.72 181.97 59.47 181.84 59.23C181.71 58.99 181.55 58.77 181.37 58.56C179.62 56.98 178.22 56.16 177.74 55.64C177.63 55.47 177.52 55.29 177.44 55.1C177.35 54.92 177.28 54.72 177.23 54.52C177.17 54.32 177.14 54.12 177.12 53.91C177.1 53.71 177.09 53.5 177.11 53.29L176.97 50.71C176.97 47.95 178.64 46.54 181.71 46.54C184.77 46.54 186.19 47.87 186.19 50.5L186.19 53.66L182.34 53.66L182.34 52.08C182.34 50.5 182.21 49.57 181.72 49.57C181.23 49.57 180.96 50.2 180.96 51.15C180.95 51.31 180.95 51.47 180.96 51.63C180.97 51.79 180.98 51.95 181.01 52.11C181.04 52.27 181.08 52.42 181.12 52.58C181.17 52.73 181.23 52.88 181.29 53.03C181.56 53.33 181.84 53.63 182.13 53.92C182.41 54.21 182.71 54.5 183.01 54.77C183.32 55.04 183.63 55.3 183.95 55.55C184.27 55.8 184.6 56.04 184.94 56.27C185.17 56.47 185.37 56.68 185.55 56.92C185.73 57.16 185.88 57.42 186 57.69C186.12 57.96 186.21 58.25 186.26 58.54C186.31 58.83 186.33 59.13 186.32 59.43L186.32 62.36C186.32 65.12 184.74 66.49 181.58 66.49C181.58 66.49 180.05 65.17 176.98 62.53L176.98 58.64L177 58.65Z" />
	<path id="Layer" fill-rule="evenodd" class="shp0" d="M123.53 54.12C123.38 53.85 123.26 53.57 123.16 53.29C123.06 53 122.98 52.7 122.93 52.4C122.88 52.1 122.85 51.8 122.84 51.5C122.83 51.27 122.83 51.05 122.84 50.82C122.85 50.6 122.87 50.37 122.9 50.15C122.92 49.93 122.96 49.7 123.01 49.48C123.05 49.26 123.11 49.05 123.17 48.83C123.36 48.51 123.59 48.21 123.85 47.94C124.11 47.68 124.41 47.45 124.73 47.26C125.06 47.07 125.4 46.92 125.76 46.82C126.12 46.72 126.49 46.66 126.87 46.65C131.02 46.5 131.05 49.62 131.05 49.62C131.05 49.62 131.05 51.7 131.05 52.41C131.05 54.41 127.99 55.56 127.99 55.56C128.12 55.77 128.25 55.97 128.38 56.18C128.5 56.38 128.63 56.59 128.75 56.8C128.87 57.01 128.99 57.22 129.1 57.43C129.22 57.64 129.33 57.86 129.44 58.07C129.68 58.64 129.44 55.63 129.44 55.63L132.68 55.63L132.81 60.47C132.81 60.67 132.8 60.87 132.78 61.07C132.76 61.27 132.73 61.47 132.69 61.66C132.65 61.86 132.6 62.05 132.54 62.24C132.47 62.43 132.4 62.62 132.32 62.8C132.39 62.86 132.48 62.92 132.56 62.96C132.65 63.01 132.74 63.05 132.83 63.08C132.92 63.12 133.02 63.14 133.11 63.16C133.21 63.18 133.31 63.19 133.41 63.2L133.5 66.19C133.38 66.21 133.26 66.23 133.14 66.24C133.02 66.26 132.9 66.27 132.78 66.28C132.65 66.29 132.53 66.3 132.41 66.31C132.29 66.31 132.17 66.32 132.05 66.32C131.91 66.3 131.78 66.27 131.65 66.23C131.52 66.19 131.4 66.13 131.28 66.07C131.16 66.01 131.04 65.94 130.93 65.86C130.82 65.78 130.72 65.69 130.63 65.59C130.53 65.5 129.84 66.74 126.9 66.71C126.35 66.73 125.81 66.64 125.29 66.45C124.78 66.26 124.31 65.97 123.9 65.6C123.49 65.23 123.16 64.79 122.93 64.3C122.69 63.8 122.55 63.27 122.51 62.72C122.47 62.18 122.34 59.1 122.38 57.88C122.4 57.59 122.44 57.3 122.52 57.01C122.6 56.73 122.72 56.45 122.86 56.19C123 55.94 123.17 55.69 123.37 55.47C123.56 55.25 123.78 55.06 124.03 54.89C123.84 54.65 123.67 54.39 123.53 54.12ZM126.21 62.57C126.92 64.88 128.78 63.09 128.78 63.09L126.11 58.36C126.08 58.71 126.06 59.06 126.05 59.41C126.04 59.77 126.04 60.12 126.05 60.47C126.06 60.82 126.07 61.18 126.1 61.53C126.13 61.88 126.16 62.23 126.21 62.58L126.21 62.57ZM126.87 53.37L127.26 53.28L127.5 53.04L127.5 52.62L127.59 50.17L127.47 49.78L127.23 49.51L126.96 49.41L126.76 49.41L126.66 49.59L126.52 49.95C126.52 49.95 126.52 51.98 126.52 52.49C126.54 52.57 126.56 52.64 126.58 52.72C126.61 52.8 126.63 52.87 126.66 52.94C126.69 53.02 126.72 53.09 126.76 53.16C126.79 53.23 126.83 53.3 126.87 53.37Z" />
</svg>